<svg width="64" height="64" viewBox="0 0 64 64" fill="none" xmlns="http://www.w3.org/2000/svg">
<path d="M9 31C8.20888 31 7.43552 31.2346 6.77772 31.6741C6.11992 32.1136 5.60723 32.7384 5.30448 33.4693C5.00173 34.2002 4.92252 35.0044 5.07686 35.7804C5.2312 36.5563 5.61216 37.269 6.17157 37.8284C6.73098 38.3878 7.44372 38.7688 8.21964 38.9231C8.99556 39.0775 9.79983 38.9983 10.5307 38.6955C11.2616 38.3928 11.8864 37.8801 12.3259 37.2223C12.7654 36.5645 13 35.7911 13 35C13 33.9391 12.5786 32.9217 11.8284 32.1716C11.0783 31.4214 10.0609 31 9 31ZM9 37C8.60444 37 8.21776 36.8827 7.88886 36.6629C7.55996 36.4432 7.30362 36.1308 7.15224 35.7654C7.00087 35.3999 6.96126 34.9978 7.03843 34.6098C7.1156 34.2219 7.30608 33.8655 7.58579 33.5858C7.86549 33.3061 8.22186 33.1156 8.60982 33.0384C8.99778 32.9613 9.39992 33.0009 9.76537 33.1522C10.1308 33.3036 10.4432 33.56 10.6629 33.8889C10.8827 34.2178 11 34.6044 11 35C11 35.5304 10.7893 36.0391 10.4142 36.4142C10.0391 36.7893 9.53043 37 9 37ZM34 13C34.7911 13 35.5645 12.7654 36.2223 12.3259C36.8801 11.8864 37.3928 11.2616 37.6955 10.5307C37.9983 9.79983 38.0775 8.99556 37.9231 8.21964C37.7688 7.44372 37.3878 6.73098 36.8284 6.17157C36.269 5.61216 35.5563 5.2312 34.7804 5.07686C34.0044 4.92252 33.2002 5.00173 32.4693 5.30448C31.7384 5.60723 31.1136 6.11992 30.6741 6.77772C30.2346 7.43552 30 8.20888 30 9C30 10.0609 30.4214 11.0783 31.1716 11.8284C31.9217 12.5786 32.9391 13 34 13ZM34 7C34.3956 7 34.7822 7.1173 35.1111 7.33706C35.44 7.55683 35.6964 7.86918 35.8478 8.23464C35.9991 8.60009 36.0387 9.00222 35.9616 9.39018C35.8844 9.77814 35.6939 10.1345 35.4142 10.4142C35.1345 10.6939 34.7781 10.8844 34.3902 10.9616C34.0022 11.0387 33.6001 10.9991 33.2346 10.8478C32.8692 10.6964 32.5568 10.44 32.3371 10.1111C32.1173 9.78224 32 9.39556 32 9C32 8.46957 32.2107 7.96086 32.5858 7.58579C32.9609 7.21072 33.4696 7 34 7ZM48 26C47.4067 26 46.8266 26.1759 46.3333 26.5056C45.8399 26.8352 45.4554 27.3038 45.2284 27.852C45.0013 28.4001 44.9419 29.0033 45.0576 29.5853C45.1734 30.1672 45.4591 30.7018 45.8787 31.1213C46.2982 31.5409 46.8328 31.8266 47.4147 31.9424C47.9967 32.0581 48.5999 31.9987 49.148 31.7716C49.6962 31.5446 50.1648 31.1601 50.4944 30.6667C50.8241 30.1734 51 29.5933 51 29C51 28.2044 50.6839 27.4413 50.1213 26.8787C49.5587 26.3161 48.7956 26 48 26ZM48 30C47.8022 30 47.6089 29.9414 47.4444 29.8315C47.28 29.7216 47.1518 29.5654 47.0761 29.3827C47.0004 29.2 46.9806 28.9989 47.0192 28.8049C47.0578 28.6109 47.153 28.4327 47.2929 28.2929C47.4327 28.153 47.6109 28.0578 47.8049 28.0192C47.9989 27.9806 48.2 28.0004 48.3827 28.0761C48.5654 28.1518 48.7216 28.28 48.8315 28.4444C48.9414 28.6089 49 28.8022 49 29C49 29.2652 48.8946 29.5196 48.7071 29.7071C48.5196 29.8946 48.2652 30 48 30Z" fill="#F84525"/>
<path d="M62 47H55V15C55 13.9391 54.5786 12.9217 53.8284 12.1716C53.0783 11.4214 52.0609 11 51 11H45C44.2957 11.0041 43.6053 11.1961 43 11.556V5C43 3.93913 42.5786 2.92172 41.8284 2.17157C41.0783 1.42143 40.0609 1 39 1H29C27.9391 1 26.9217 1.42143 26.1716 2.17157C25.4214 2.92172 25 3.93913 25 5V21H17V11C17 9.93913 16.5786 8.92172 15.8284 8.17157C15.0783 7.42143 14.0609 7 13 7H5C3.93913 7 2.92172 7.42143 2.17157 8.17157C1.42143 8.92172 1 9.93913 1 11V59C1 60.0609 1.42143 61.0783 2.17157 61.8284C2.92172 62.5786 3.93913 63 5 63H13C13.8873 62.9995 14.749 62.7032 15.449 62.158C16.5512 62.7107 17.767 62.999 19 63H62C62.2652 63 62.5196 62.8946 62.7071 62.7071C62.8946 62.5196 63 62.2652 63 62V58C63 57.7348 62.8946 57.4804 62.7071 57.2929C62.5196 57.1054 62.2652 57 62 57V53C62.2652 53 62.5196 52.8946 62.7071 52.7071C62.8946 52.5196 63 52.2652 63 52V48C63 47.7348 62.8946 47.4804 62.7071 47.2929C62.5196 47.1054 62.2652 47 62 47ZM43 47V23H53V47H43ZM53 21H43V19H53V21ZM45 13H51C51.5304 13 52.0391 13.2107 52.4142 13.5858C52.7893 13.9609 53 14.4696 53 15V17H43V15C43 14.4696 43.2107 13.9609 43.5858 13.5858C43.9609 13.2107 44.4696 13 45 13ZM29 3H39C39.5304 3 40.0391 3.21071 40.4142 3.58579C40.7893 3.96086 41 4.46957 41 5V47H39V16C39 15.7348 38.8946 15.4804 38.7071 15.2929C38.5196 15.1054 38.2652 15 38 15H30C29.7348 15 29.4804 15.1054 29.2929 15.2929C29.1054 15.4804 29 15.7348 29 16V47H27V5C27 4.46957 27.2107 3.96086 27.5858 3.58579C27.9609 3.21071 28.4696 3 29 3ZM37 47H31V17H37V47ZM11 55H3V51H12.082C11.3736 52.2141 11.0003 53.5944 11 55ZM13.726 49H3V21H15V48.082C14.5465 48.3459 14.1199 48.6534 13.726 49ZM15 19H3V15H15V19ZM25 31H17V29H25V31ZM17 33H25V47H19C18.3249 47.0024 17.6528 47.0908 17 47.263V33ZM25 23V27H17V23H25ZM5 9H13C13.5304 9 14.0391 9.21071 14.4142 9.58579C14.7893 9.96086 15 10.4696 15 11V13H3V11C3 10.4696 3.21071 9.96086 3.58579 9.58579C3.96086 9.21071 4.46957 9 5 9ZM13 61H5C4.46957 61 3.96086 60.7893 3.58579 60.4142C3.21071 60.0391 3 59.5304 3 59V57H11.263C11.6522 58.4972 12.4671 59.8494 13.609 60.893C13.4128 60.9603 13.2073 60.9964 13 61ZM61 61H19C17.4087 61 15.8826 60.3679 14.7574 59.2426C13.6321 58.1174 13 56.5913 13 55C13 53.4087 13.6321 51.8826 14.7574 50.7574C15.8826 49.6321 17.4087 49 19 49H61V51H19C17.9391 51 16.9217 51.4214 16.1716 52.1716C15.4214 52.9217 15 53.9391 15 55C15 56.0609 15.4214 57.0783 16.1716 57.8284C16.9217 58.5786 17.9391 59 19 59H61V61ZM19 57C18.4696 57 17.9609 56.7893 17.5858 56.4142C17.2107 56.0391 17 55.5304 17 55C17 54.4696 17.2107 53.9609 17.5858 53.5858C17.9609 53.2107 18.4696 53 19 53H21V57H19ZM60 57H23V53H60V57Z" fill="#F84525"/>
</svg>
