<svg width="55" height="55" viewBox="0 0 55 55" fill="none" xmlns="http://www.w3.org/2000/svg">
<path d="M7.34686 15.163C8.86834 15.163 10.1019 13.6861 10.1019 11.8644C10.1019 10.0421 8.86834 8.56567 7.34686 8.56567C5.82538 8.56567 4.5918 10.0421 4.5918 11.8644C4.5918 13.6861 5.82538 15.163 7.34686 15.163ZM7.34686 10.7648C7.59042 10.7648 7.82401 10.8806 7.99623 11.0868C8.16846 11.2931 8.26521 11.5727 8.26521 11.8644C8.26521 12.156 8.16846 12.4357 7.99623 12.6419C7.82401 12.8481 7.59042 12.9639 7.34686 12.9639C7.1033 12.9639 6.86971 12.8481 6.69749 12.6419C6.52526 12.4357 6.42851 12.156 6.42851 11.8644C6.42851 11.5727 6.52526 11.2931 6.69749 11.0868C6.86971 10.8806 7.1033 10.7648 7.34686 10.7648Z" fill="#E95D40"/>
<path d="M54.9434 48.2593L46.1482 19.3232L40.4994 0.725261C40.4584 0.589429 40.3953 0.464617 40.314 0.357958C40.2326 0.251299 40.1345 0.164885 40.0252 0.103654C39.9159 0.0424229 39.7977 0.00757564 39.6771 0.00110394C39.5566 -0.00536776 39.4362 0.0166629 39.3228 0.0659368L27.5506 5.19649V3.06788C27.5506 2.77625 27.4539 2.49658 27.2816 2.29037C27.1094 2.08416 26.8758 1.96831 26.6323 1.96831H0.918354C0.674791 1.96831 0.441205 2.08416 0.26898 2.29037C0.0967549 2.49658 0 2.77625 0 3.06788L0 53.6477C0 53.9393 0.0967549 54.219 0.26898 54.4252C0.441205 54.6314 0.674791 54.7472 0.918354 54.7472H26.6323C26.8758 54.7472 27.1094 54.6314 27.2816 54.4252C27.4539 54.219 27.5506 53.9393 27.5506 53.6477V9.5803L31.0855 21.2105L41.1357 54.274C41.2188 54.5485 41.3895 54.7723 41.6103 54.8964C41.8313 55.0198 42.0842 55.0338 42.3134 54.9339L54.3941 49.6638C54.6232 49.5645 54.8099 49.3602 54.9133 49.096C55.0166 48.8318 55.0281 48.5293 54.9451 48.255L54.9434 48.2593ZM25.7139 48.1497H14.6937V45.9506H25.7139V48.1497ZM1.83671 20.6607H12.857V25.059H1.83671V20.6607ZM25.7139 37.1541H14.6937V34.955H25.7139V37.1541ZM14.6937 43.7515V39.3533H25.7139V43.7515H14.6937ZM25.7139 32.7559H14.6937V4.1673H25.7139V32.7559ZM12.857 4.1673V18.4616H1.83671V4.1673H12.857ZM1.83671 27.2581H12.857V52.548H1.83671V27.2581ZM14.6937 52.548V50.3489H25.7139V52.548H14.6937ZM44.1083 19.042L33.7531 23.5557L33.1257 21.4907L43.4814 16.977L44.1083 19.042ZM39.0834 2.50985L42.8487 14.9101L32.4931 19.4178L28.7282 7.02575L39.0834 2.50985ZM42.5483 52.4863L34.3813 25.6206L44.7366 21.1124L52.9035 47.9737L42.5483 52.4863Z" fill="#E95D40"/>
<path d="M33.5154 13.1274C33.9648 14.6061 35.2245 15.4989 36.5235 15.2589C37.8225 15.0195 38.7996 13.7149 38.8565 12.1428C38.9139 10.5703 38.0355 9.16848 36.7589 8.79463C35.4823 8.4205 34.1626 9.17865 33.6075 10.6052C33.4537 10.9975 33.3664 11.4224 33.3506 11.8553C33.3348 12.2882 33.3909 12.7206 33.5155 13.1274H33.5154ZM35.2724 11.534C35.3231 11.403 35.3949 11.2853 35.4838 11.1877C35.5727 11.0901 35.6769 11.0145 35.7903 10.9654C35.9036 10.9159 36.0239 10.8936 36.1444 10.8998C36.2649 10.906 36.3832 10.9406 36.4925 11.0016C36.6018 11.0626 36.7 11.1487 36.7815 11.2552C36.863 11.3617 36.9262 11.4863 36.9674 11.622C37.1414 12.1928 36.8956 12.8241 36.419 13.0325C35.9419 13.2403 35.4146 12.946 35.241 12.3753C35.1992 12.2397 35.1805 12.0954 35.1859 11.9509C35.1913 11.8064 35.2207 11.6647 35.2724 11.534Z" fill="#E95D40"/>
</svg>
