<svg width="79" height="79" viewBox="0 0 79 79" fill="none" xmlns="http://www.w3.org/2000/svg">
<path fill-rule="evenodd" clip-rule="evenodd" d="M45.2824 34.0599C45.4331 34.2111 45.5178 34.4162 45.5178 34.63C45.5178 34.8438 45.4331 35.0489 45.2824 35.2001L36.9238 43.5789C36.7668 43.7362 36.5616 43.8142 36.355 43.8142C36.1484 43.8142 35.9432 43.7362 35.7862 43.5789L31.0201 38.8012C30.8693 38.6499 30.7847 38.4449 30.7847 38.2311C30.7847 38.0173 30.8693 37.8122 31.0201 37.6609C31.0947 37.5858 31.1835 37.5262 31.2812 37.4855C31.3789 37.4448 31.4837 37.4239 31.5895 37.4239C31.6953 37.4239 31.8001 37.4448 31.8978 37.4855C31.9955 37.5262 32.0843 37.5858 32.159 37.6609L36.355 41.8671L44.1435 34.0599C44.4574 33.7452 44.9671 33.7452 45.2824 34.0599ZM38.4383 49.6677C44.6868 49.6677 49.7696 44.5726 49.7696 38.3091C49.7696 32.0455 44.6868 26.9491 38.4383 26.9491C32.1898 26.9491 27.107 32.0455 27.107 38.3091C27.107 44.5726 32.1898 49.6677 38.4383 49.6677ZM38.4383 25.3355C31.3018 25.3355 25.4973 31.1553 25.4973 38.3091C25.4973 45.4615 31.3018 51.2813 38.4383 51.2813C45.5748 51.2813 51.3793 45.4615 51.3793 38.3091C51.3793 31.1553 45.5748 25.3355 38.4383 25.3355ZM64.759 64.8438C63.9822 65.6224 62.8608 66.0648 61.7621 66.0177C60.799 65.9787 59.9472 65.5794 59.3636 64.8922L51.7549 55.9312L55.8678 51.8084L64.8072 59.4355C65.4927 60.0204 65.8911 60.8743 65.93 61.8398C65.9743 62.9424 65.5357 64.0652 64.759 64.8438ZM52.7167 49.1204L54.639 50.7595L50.7086 54.6995L49.0532 52.7497C50.4414 51.722 51.6752 50.4997 52.7167 49.1204ZM22.145 38.3091C22.145 47.3144 29.4546 54.6403 38.4383 54.6403C47.422 54.6403 54.7302 47.3144 54.7302 38.3091C54.7302 29.3037 47.422 21.9765 38.4383 21.9765C29.4546 21.9765 22.145 29.3037 22.145 38.3091ZM24.6267 56.0079C27.6302 56.0079 30.5358 55.8263 33.2268 55.4781C27.6825 53.7837 23.2705 49.4579 21.4461 43.9595C16.197 43.7335 11.3624 42.9442 7.77804 41.7246C5.75245 41.0361 4.20173 40.2374 3.15271 39.3525V50.0173C3.15271 51.4063 5.37818 52.9151 9.10742 54.0527C13.2418 55.3127 18.7525 56.0079 24.6267 56.0079ZM3.15271 25.7618C4.29429 26.7232 6.02879 27.5825 8.3267 28.3113C12.0935 29.5054 17.0394 30.2382 22.3717 30.3996C21.1966 32.7864 20.5353 35.4718 20.5353 38.3091C20.5353 39.6874 20.6922 41.0321 20.9873 42.323C16.0937 42.0742 11.62 41.3279 8.29584 40.197C5.07502 39.1011 3.15271 37.6919 3.15271 36.4238V25.7618ZM3.15271 12.1643C4.34661 13.1688 6.19245 14.0603 8.65133 14.8106C12.9413 16.1204 18.6143 16.8411 24.6267 16.8411C30.6377 16.8411 36.3121 16.1204 40.6007 14.8106C43.0609 14.0603 44.9068 13.1688 46.0993 12.1643V22.0921C43.7759 20.9841 41.1775 20.3629 38.4383 20.3629C32.0449 20.3629 26.4256 23.7407 23.2571 28.8075C17.7517 28.7053 12.6368 27.9859 8.8123 26.773C5.26818 25.6488 3.15271 24.175 3.15271 22.8304V12.1643ZM9.1195 5.20687C5.38355 6.34717 3.15271 7.85322 3.15271 9.2369C3.15271 10.6206 5.38355 12.128 9.1195 13.2669C13.2619 14.5309 18.7686 15.2275 24.6267 15.2275C30.4835 15.2275 35.9901 14.5309 40.1326 13.2669C43.8685 12.128 46.0993 10.6206 46.0993 9.2369C46.0993 7.85322 43.8685 6.34717 40.1326 5.20687C35.9901 3.94286 30.4835 3.24766 24.6267 3.24766C18.7686 3.24766 13.2619 3.94286 9.1195 5.20687ZM67.5384 61.7739C67.4808 60.3539 66.8811 59.0872 65.8496 58.2064L53.6343 47.7837C55.3487 45.0325 56.34 41.7851 56.34 38.3091C56.34 31.8129 52.8804 26.1127 47.7091 22.9621V9.2369C47.7091 7.00875 45.2515 5.08181 40.6007 3.66317C36.3121 2.35479 30.6377 1.63403 24.6267 1.63403C18.6143 1.63403 12.9413 2.35479 8.65133 3.66317C4.00051 5.08181 1.54297 7.00875 1.54297 9.2369V50.0173C1.54297 54.9563 13.4363 57.6215 24.6267 57.6215C29.5378 57.6215 34.2047 57.1468 38.1351 56.2499C38.2357 56.2512 38.3363 56.2539 38.4383 56.2539C41.8295 56.2539 45.0034 55.3046 47.7091 53.656L58.1375 65.937C59.0148 66.9711 60.2798 67.5722 61.6978 67.63C61.7715 67.6327 61.8467 67.634 61.9204 67.634C63.4068 67.634 64.8448 67.0397 65.8978 65.9854C67.0032 64.8774 67.6015 63.3418 67.5384 61.7739Z" fill="#F84525"/>
</svg>
