<svg width="32" height="32" viewBox="0 0 32 32" fill="none" xmlns="http://www.w3.org/2000/svg">
<g id="Frame" clip-path="url(#clip0_404_2453)">
<g id="Group">
<path id="Vector" fill-rule="evenodd" clip-rule="evenodd" d="M21.9733 7.47735C22.004 7.60506 22.0093 7.73757 21.9887 7.8673C21.9682 7.99703 21.9223 8.12144 21.8536 8.23341C21.7849 8.34537 21.6948 8.4427 21.5885 8.51982C21.4822 8.59694 21.3617 8.65234 21.234 8.68285C21.1572 8.70049 21.0787 8.70946 21 8.7096C20.7753 8.70934 20.5572 8.63344 20.3809 8.49414C20.2045 8.35483 20.0802 8.16023 20.028 7.94167C19.9157 7.47107 19.6477 7.05222 19.2674 6.75314C18.8871 6.45405 18.4169 6.29229 17.9331 6.2941C17.6684 6.2941 17.4146 6.18897 17.2275 6.00183C17.0403 5.8147 16.9352 5.56088 16.9352 5.29623C16.9352 5.03158 17.0403 4.77776 17.2275 4.59063C17.4146 4.40349 17.6684 4.29835 17.9331 4.29835C18.8663 4.29527 19.7731 4.60759 20.5065 5.18465C21.2399 5.7617 21.7568 6.56963 21.9733 7.47735ZM24.2817 19.4211C25.8 19.4111 27.2529 18.8016 28.3239 17.7254C29.395 16.6491 29.9974 15.1933 30 13.6749C30 10.5182 27.4331 7.93742 24.2783 7.92417C24.054 7.92398 23.8364 7.84802 23.6607 7.70861C23.4851 7.5692 23.3617 7.37452 23.3106 7.15617C23.0078 5.90302 22.2768 4.79498 21.244 4.02343C20.2111 3.25188 18.9412 2.86528 17.6537 2.9304C16.3661 2.99552 15.1417 3.50827 14.192 4.38009C13.2422 5.25191 12.6268 6.42805 12.452 7.70535C12.4255 7.89513 12.3453 8.07335 12.2207 8.21893C12.0962 8.36451 11.9325 8.47135 11.7491 8.52679C11.5657 8.58222 11.3702 8.58394 11.1859 8.53174C11.0015 8.47954 10.836 8.3756 10.7089 8.23223C10.2301 7.68436 9.5692 7.32835 8.8483 7.23002C8.12739 7.13169 7.39526 7.29769 6.78726 7.69733C6.17927 8.09696 5.73651 8.70321 5.54086 9.40399C5.34521 10.1048 5.40989 10.8527 5.72295 11.5095C5.79197 11.6537 5.82519 11.8125 5.81982 11.9724C5.81445 12.1322 5.77063 12.2884 5.69208 12.4277C5.61354 12.567 5.50257 12.6853 5.36859 12.7726C5.2346 12.8599 5.08155 12.9137 4.92239 12.9293C4.11085 13.0134 3.36039 13.3989 2.81935 14.0096C2.27831 14.6203 1.98606 15.4117 2.00036 16.2275C2.01466 17.0432 2.33447 17.824 2.89659 18.4153C3.4587 19.0067 4.22221 19.3656 5.0362 19.4212H13.1538V15.4025C13.1537 15.2712 13.1795 15.1411 13.2297 15.0197C13.2799 14.8983 13.3536 14.7881 13.4465 14.6952C13.5393 14.6023 13.6496 14.5286 13.771 14.4784C13.8924 14.4282 14.0225 14.4024 14.1538 14.4025H17.8469C17.9782 14.4025 18.1083 14.4283 18.2296 14.4786C18.351 14.5288 18.4612 14.6025 18.5541 14.6953C18.647 14.7882 18.7206 14.8985 18.7709 15.0198C18.8211 15.1411 18.8469 15.2712 18.8469 15.4025V19.4209L24.2817 19.4211ZM19.348 23.9662L16 28.4132L12.6525 23.9662H14.154C14.4191 23.9656 14.6731 23.8601 14.8605 23.6727C15.0479 23.4852 15.1535 23.2312 15.154 22.9662V16.4027H16.8471V22.966C16.8477 23.2311 16.9532 23.4851 17.1406 23.6725C17.328 23.8599 17.582 23.9655 17.8471 23.966L19.348 23.9662ZM25.0412 5.96373C24.5261 4.48969 23.5651 3.21247 22.2914 2.30922C21.0177 1.40597 19.4945 0.921445 17.9331 0.922855C16.3962 0.923019 14.8961 1.39317 13.634 2.27025C12.3719 3.14733 11.4083 4.38938 10.8723 5.82979C10.0351 5.36647 9.08278 5.15241 8.12785 5.2129C7.17291 5.2734 6.25524 5.60591 5.48321 6.17118C4.71118 6.73644 4.11704 7.51084 3.77097 8.40291C3.4249 9.29498 3.34136 10.2675 3.5302 11.2055C2.38229 11.6053 1.40831 12.3904 0.773943 13.4273C0.139575 14.4641 -0.116013 15.6888 0.0506546 16.8928C0.217322 18.0969 0.795951 19.206 1.68812 20.0316C2.58029 20.8572 3.73091 21.3482 4.94426 21.4212H13.1538V21.9659H10.6486C10.463 21.9659 10.2812 22.0175 10.1233 22.1151C9.96548 22.2126 9.83793 22.3522 9.75495 22.5181C9.67198 22.6841 9.63686 22.8699 9.65354 23.0547C9.67022 23.2394 9.73804 23.4159 9.84939 23.5644L15.2006 30.6812C15.2941 30.8046 15.4149 30.9048 15.5536 30.9737C15.6923 31.0427 15.8451 31.0786 16 31.0786C16.1549 31.0786 16.3077 31.0427 16.4464 30.9737C16.5851 30.9048 16.7059 30.8046 16.7995 30.6812L22.1506 23.5642C22.2621 23.4158 22.33 23.2393 22.3467 23.0544C22.3635 22.8696 22.3284 22.6838 22.2454 22.5178C22.1624 22.3518 22.0348 22.2122 21.8768 22.1147C21.7189 22.0172 21.537 21.9656 21.3514 21.9657H18.847V21.4212H24.2861C26.2698 21.4123 28.1745 20.643 29.6079 19.2717C31.0413 17.9005 31.8943 16.0317 31.9911 14.0504C32.0878 12.0691 31.4211 10.1261 30.1282 8.62164C28.8352 7.11721 27.0146 6.16593 25.0412 5.96373Z" fill="#E95D40"/>
</g>
</g>
<defs>
<clipPath id="clip0_404_2453">
<rect width="32" height="32" fill="white"/>
</clipPath>
</defs>
</svg>
