<svg width="44" height="43" viewBox="0 0 44 43" fill="none" xmlns="http://www.w3.org/2000/svg">
<g id="Group 1000002848">
<ellipse id="Ellipse 4" cx="21.6577" cy="21.4223" rx="21.4529" ry="20.6892" fill="white"/>
<g id="Group">
<path id="Vector" d="M34.4943 22.0249C34.2666 21.7135 28.8427 14.4001 21.9154 14.4001C14.9881 14.4001 9.56389 21.7135 9.3365 22.0246C9.23143 22.1686 9.1748 22.3422 9.1748 22.5204C9.1748 22.6986 9.23143 22.8722 9.3365 23.0162C9.56389 23.3276 14.9881 30.641 21.9154 30.641C28.8427 30.641 34.2666 23.3275 34.4943 23.0164C34.5995 22.8725 34.6562 22.6989 34.6562 22.5207C34.6562 22.3424 34.5995 22.1688 34.4943 22.0249ZM21.9154 28.9609C16.8127 28.9609 12.3932 24.1068 11.0849 22.52C12.3915 20.9317 16.8017 16.0802 21.9154 16.0802C27.0178 16.0802 31.437 20.9334 32.7458 22.5211C31.4393 24.1093 27.029 28.9609 21.9154 28.9609Z" fill="#192335"/>
<path id="Vector_2" d="M21.916 17.48C19.1369 17.48 16.8757 19.7412 16.8757 22.5203C16.8757 25.2995 19.1369 27.5606 21.916 27.5606C24.6952 27.5606 26.9563 25.2995 26.9563 22.5203C26.9563 19.7412 24.6952 17.48 21.916 17.48ZM21.916 25.8805C20.0632 25.8805 18.5559 24.3732 18.5559 22.5203C18.5559 20.6675 20.0632 19.1602 21.916 19.1602C23.7689 19.1602 25.2762 20.6675 25.2762 22.5203C25.2762 24.3732 23.7689 25.8805 21.916 25.8805Z" fill="#192335"/>
</g>
</g>
</svg>
