<svg width="65" height="68" viewBox="0 0 65 68" fill="none" xmlns="http://www.w3.org/2000/svg">
<path d="M54.47 61.0281C53.126 61.0261 51.8375 60.4666 50.8871 59.4724C49.9367 58.4781 49.4019 57.1302 49.4 55.7241V15.3817C49.4 15.0931 49.5096 14.8164 49.7046 14.6124C49.8997 14.4083 50.1642 14.2937 50.44 14.2937H58.5C58.7759 14.2937 59.0404 14.4083 59.2354 14.6124C59.4305 14.8164 59.54 15.0931 59.54 15.3817V55.7234C59.5383 57.1296 59.0036 58.4777 58.0532 59.4721C57.1028 60.4665 55.8142 61.0261 54.47 61.0281ZM51.48 16.4697V55.7234C51.48 56.553 51.795 57.3486 52.3558 57.9352C52.9165 58.5218 53.677 58.8514 54.47 58.8514C55.263 58.8514 56.0235 58.5218 56.5843 57.9352C57.145 57.3486 57.46 56.553 57.46 55.7234V16.4697H51.48Z" fill="#F84525"/>
<path d="M54.47 61.028H11.1657C9.65301 61.0262 8.20274 60.3968 7.13308 59.2778C6.06343 58.1587 5.46174 56.6415 5.46002 55.059V5.86644C5.46002 5.57789 5.56959 5.30115 5.76463 5.09711C5.95967 4.89307 6.2242 4.77844 6.50002 4.77844H50.44C50.7159 4.77844 50.9804 4.89307 51.1754 5.09711C51.3705 5.30115 51.48 5.57789 51.48 5.86644V15.3817C51.48 15.6702 51.3705 15.947 51.1754 16.151C50.9804 16.3551 50.7159 16.4697 50.44 16.4697C50.1642 16.4697 49.8997 16.3551 49.7046 16.151C49.5096 15.947 49.4 15.6702 49.4 15.3817V6.95444H7.54002V55.059C7.54105 56.0647 7.92338 57.0288 8.60311 57.7399C9.28283 58.451 10.2044 58.851 11.1657 58.852H54.47C54.7459 58.852 55.0104 58.9667 55.2054 59.1707C55.4005 59.3748 55.51 59.6515 55.51 59.94C55.51 60.2286 55.4005 60.5053 55.2054 60.7094C55.0104 60.9134 54.7459 61.028 54.47 61.028Z" fill="#F84525"/>
<path d="M45.0626 6.95444H29.2026C28.9268 6.95444 28.6622 6.83981 28.4672 6.63577C28.2722 6.43173 28.1626 6.155 28.1626 5.86644C28.1626 5.57789 28.2722 5.30115 28.4672 5.09711C28.6622 4.89307 28.9268 4.77844 29.2026 4.77844H45.0626C45.3384 4.77844 45.6029 4.89307 45.798 5.09711C45.993 5.30115 46.1026 5.57789 46.1026 5.86644C46.1026 6.155 45.993 6.43173 45.798 6.63577C45.6029 6.83981 45.3384 6.95444 45.0626 6.95444ZM24.752 27.0852H11.5499C11.2741 27.0852 11.0095 26.9705 10.8145 26.7665C10.6195 26.5625 10.5099 26.2857 10.5099 25.9972V12.1857C10.5099 11.8971 10.6195 11.6204 10.8145 11.4163C11.0095 11.2123 11.2741 11.0977 11.5499 11.0977H24.752C25.0279 11.0977 25.2924 11.2123 25.4874 11.4163C25.6825 11.6204 25.792 11.8971 25.792 12.1857V25.9972C25.792 26.2857 25.6825 26.5625 25.4874 26.7665C25.2924 26.9705 25.0279 27.0852 24.752 27.0852ZM12.5899 24.9092H23.712V13.2737H12.5899V24.9092ZM45.3876 13.2737H29.5276C29.2518 13.2737 28.9872 13.1591 28.7922 12.955C28.5972 12.751 28.4876 12.4742 28.4876 12.1857C28.4876 11.8971 28.5972 11.6204 28.7922 11.4163C28.9872 11.2123 29.2518 11.0977 29.5276 11.0977H45.3876C45.6634 11.0977 45.9279 11.2123 46.123 11.4163C46.318 11.6204 46.4276 11.8971 46.4276 12.1857C46.4276 12.4742 46.318 12.751 46.123 12.955C45.9279 13.1591 45.6634 13.2737 45.3876 13.2737ZM45.3876 20.1791H29.5276C29.2518 20.1791 28.9872 20.0645 28.7922 19.8604C28.5972 19.6564 28.4876 19.3796 28.4876 19.0911C28.4876 18.8025 28.5972 18.5258 28.7922 18.3217C28.9872 18.1177 29.2518 18.0031 29.5276 18.0031H45.3876C45.6634 18.0031 45.9279 18.1177 46.123 18.3217C46.318 18.5258 46.4276 18.8025 46.4276 19.0911C46.4276 19.3796 46.318 19.6564 46.123 19.8604C45.9279 20.0645 45.6634 20.1791 45.3876 20.1791ZM45.3876 27.0852H29.5276C29.2518 27.0852 28.9872 26.9705 28.7922 26.7665C28.5972 26.5625 28.4876 26.2857 28.4876 25.9972C28.4876 25.7086 28.5972 25.4319 28.7922 25.2278C28.9872 25.0238 29.2518 24.9092 29.5276 24.9092H45.3876C45.6634 24.9092 45.9279 25.0238 46.123 25.2278C46.318 25.4319 46.4276 25.7086 46.4276 25.9972C46.4276 26.2857 46.318 26.5625 46.123 26.7665C45.9279 26.9705 45.6634 27.0852 45.3876 27.0852ZM45.3876 33.9912H11.5499C11.2741 33.9912 11.0095 33.8766 10.8145 33.6726C10.6195 33.4685 10.5099 33.1918 10.5099 32.9032C10.5099 32.6147 10.6195 32.3379 10.8145 32.1339C11.0095 31.9299 11.2741 31.8152 11.5499 31.8152H45.3876C45.6634 31.8152 45.9279 31.9299 46.123 32.1339C46.318 32.3379 46.4276 32.6147 46.4276 32.9032C46.4276 33.1918 46.318 33.4685 46.123 33.6726C45.9279 33.8766 45.6634 33.9912 45.3876 33.9912ZM45.3876 40.8973H11.5499C11.2741 40.8973 11.0095 40.7827 10.8145 40.5787C10.6195 40.3746 10.5099 40.0979 10.5099 39.8093C10.5099 39.5208 10.6195 39.244 10.8145 39.04C11.0095 38.8359 11.2741 38.7213 11.5499 38.7213H45.3876C45.6634 38.7213 45.9279 38.8359 46.123 39.04C46.318 39.244 46.4276 39.5208 46.4276 39.8093C46.4276 40.0979 46.318 40.3746 46.123 40.5787C45.9279 40.7827 45.6634 40.8973 45.3876 40.8973ZM45.3876 47.8034H11.5499C11.2741 47.8034 11.0095 47.6888 10.8145 47.4847C10.6195 47.2807 10.5099 47.004 10.5099 46.7154C10.5099 46.4268 10.6195 46.1501 10.8145 45.9461C11.0095 45.742 11.2741 45.6274 11.5499 45.6274H45.3876C45.6634 45.6274 45.9279 45.742 46.123 45.9461C46.318 46.1501 46.4276 46.4268 46.4276 46.7154C46.4276 47.004 46.318 47.2807 46.123 47.4847C45.9279 47.6888 45.6634 47.8034 45.3876 47.8034ZM45.3876 54.7088H11.5499C11.2741 54.7088 11.0095 54.5942 10.8145 54.3901C10.6195 54.1861 10.5099 53.9094 10.5099 53.6208C10.5099 53.3322 10.6195 53.0555 10.8145 52.8515C11.0095 52.6474 11.2741 52.5328 11.5499 52.5328H45.3876C45.6634 52.5328 45.9279 52.6474 46.123 52.8515C46.318 53.0555 46.4276 53.3322 46.4276 53.6208C46.4276 53.9094 46.318 54.1861 46.123 54.3901C45.9279 54.5942 45.6634 54.7088 45.3876 54.7088Z" fill="#F84525"/>
</svg>
