<svg width="65" height="68" viewBox="0 0 65 68" fill="none" xmlns="http://www.w3.org/2000/svg">
<path d="M54.47 61.0278C53.126 61.0258 51.8375 60.4664 50.8871 59.4721C49.9367 58.4779 49.4019 57.1299 49.4 55.7238V15.3815C49.4 15.0929 49.5096 14.8162 49.7046 14.6121C49.8997 14.4081 50.1642 14.2935 50.44 14.2935H58.5C58.7759 14.2935 59.0404 14.4081 59.2354 14.6121C59.4305 14.8162 59.54 15.0929 59.54 15.3815V55.7231C59.5383 57.1294 59.0036 58.4775 58.0532 59.4719C57.1028 60.4663 55.8142 61.0258 54.47 61.0278ZM51.48 16.4695V55.7231C51.48 56.5527 51.795 57.3483 52.3558 57.935C52.9165 58.5216 53.677 58.8511 54.47 58.8511C55.263 58.8511 56.0235 58.5216 56.5843 57.935C57.145 57.3483 57.46 56.5527 57.46 55.7231V16.4695H51.48Z" fill="#E95D40"/>
<path d="M54.47 61.0279H11.1657C9.65301 61.0261 8.20274 60.3967 7.13308 59.2776C6.06343 58.1586 5.46174 56.6414 5.46002 55.0589V5.86632C5.46002 5.57776 5.56959 5.30103 5.76463 5.09699C5.95967 4.89295 6.2242 4.77832 6.50002 4.77832H50.44C50.7159 4.77832 50.9804 4.89295 51.1754 5.09699C51.3705 5.30103 51.48 5.57776 51.48 5.86632V15.3816C51.48 15.6701 51.3705 15.9469 51.1754 16.1509C50.9804 16.3549 50.7159 16.4696 50.44 16.4696C50.1642 16.4696 49.8997 16.3549 49.7046 16.1509C49.5096 15.9469 49.4 15.6701 49.4 15.3816V6.95432H7.54002V55.0589C7.54105 56.0645 7.92338 57.0287 8.60311 57.7398C9.28283 58.4509 10.2044 58.8508 11.1657 58.8519H54.47C54.7459 58.8519 55.0104 58.9666 55.2054 59.1706C55.4005 59.3746 55.51 59.6514 55.51 59.9399C55.51 60.2285 55.4005 60.5052 55.2054 60.7093C55.0104 60.9133 54.7459 61.0279 54.47 61.0279Z" fill="#E95D40"/>
<path d="M45.0626 6.95432H29.2026C28.9268 6.95432 28.6622 6.83969 28.4672 6.63565C28.2722 6.43161 28.1626 6.15488 28.1626 5.86632C28.1626 5.57776 28.2722 5.30103 28.4672 5.09699C28.6622 4.89295 28.9268 4.77832 29.2026 4.77832H45.0626C45.3384 4.77832 45.6029 4.89295 45.798 5.09699C45.993 5.30103 46.1026 5.57776 46.1026 5.86632C46.1026 6.15488 45.993 6.43161 45.798 6.63565C45.6029 6.83969 45.3384 6.95432 45.0626 6.95432ZM24.752 27.085H11.5499C11.2741 27.085 11.0095 26.9704 10.8145 26.7664C10.6195 26.5623 10.5099 26.2856 10.5099 25.997V12.1856C10.5099 11.897 10.6195 11.6203 10.8145 11.4162C11.0095 11.2122 11.2741 11.0976 11.5499 11.0976H24.752C25.0279 11.0976 25.2924 11.2122 25.4874 11.4162C25.6825 11.6203 25.792 11.897 25.792 12.1856V25.997C25.792 26.2856 25.6825 26.5623 25.4874 26.7664C25.2924 26.9704 25.0279 27.085 24.752 27.085ZM12.5899 24.909H23.712V13.2736H12.5899V24.909ZM45.3876 13.2736H29.5276C29.2518 13.2736 28.9872 13.1589 28.7922 12.9549C28.5972 12.7509 28.4876 12.4741 28.4876 12.1856C28.4876 11.897 28.5972 11.6203 28.7922 11.4162C28.9872 11.2122 29.2518 11.0976 29.5276 11.0976H45.3876C45.6634 11.0976 45.9279 11.2122 46.123 11.4162C46.318 11.6203 46.4276 11.897 46.4276 12.1856C46.4276 12.4741 46.318 12.7509 46.123 12.9549C45.9279 13.1589 45.6634 13.2736 45.3876 13.2736ZM45.3876 20.179H29.5276C29.2518 20.179 28.9872 20.0643 28.7922 19.8603C28.5972 19.6563 28.4876 19.3795 28.4876 19.091C28.4876 18.8024 28.5972 18.5257 28.7922 18.3216C28.9872 18.1176 29.2518 18.003 29.5276 18.003H45.3876C45.6634 18.003 45.9279 18.1176 46.123 18.3216C46.318 18.5257 46.4276 18.8024 46.4276 19.091C46.4276 19.3795 46.318 19.6563 46.123 19.8603C45.9279 20.0643 45.6634 20.179 45.3876 20.179ZM45.3876 27.085H29.5276C29.2518 27.085 28.9872 26.9704 28.7922 26.7664C28.5972 26.5623 28.4876 26.2856 28.4876 25.997C28.4876 25.7085 28.5972 25.4317 28.7922 25.2277C28.9872 25.0237 29.2518 24.909 29.5276 24.909H45.3876C45.6634 24.909 45.9279 25.0237 46.123 25.2277C46.318 25.4317 46.4276 25.7085 46.4276 25.997C46.4276 26.2856 46.318 26.5623 46.123 26.7664C45.9279 26.9704 45.6634 27.085 45.3876 27.085ZM45.3876 33.9911H11.5499C11.2741 33.9911 11.0095 33.8765 10.8145 33.6725C10.6195 33.4684 10.5099 33.1917 10.5099 32.9031C10.5099 32.6146 10.6195 32.3378 10.8145 32.1338C11.0095 31.9297 11.2741 31.8151 11.5499 31.8151H45.3876C45.6634 31.8151 45.9279 31.9297 46.123 32.1338C46.318 32.3378 46.4276 32.6146 46.4276 32.9031C46.4276 33.1917 46.318 33.4684 46.123 33.6725C45.9279 33.8765 45.6634 33.9911 45.3876 33.9911ZM45.3876 40.8972H11.5499C11.2741 40.8972 11.0095 40.7826 10.8145 40.5785C10.6195 40.3745 10.5099 40.0978 10.5099 39.8092C10.5099 39.5206 10.6195 39.2439 10.8145 39.0399C11.0095 38.8358 11.2741 38.7212 11.5499 38.7212H45.3876C45.6634 38.7212 45.9279 38.8358 46.123 39.0399C46.318 39.2439 46.4276 39.5206 46.4276 39.8092C46.4276 40.0978 46.318 40.3745 46.123 40.5785C45.9279 40.7826 45.6634 40.8972 45.3876 40.8972ZM45.3876 47.8033H11.5499C11.2741 47.8033 11.0095 47.6886 10.8145 47.4846C10.6195 47.2806 10.5099 47.0038 10.5099 46.7153C10.5099 46.4267 10.6195 46.15 10.8145 45.9459C11.0095 45.7419 11.2741 45.6273 11.5499 45.6273H45.3876C45.6634 45.6273 45.9279 45.7419 46.123 45.9459C46.318 46.15 46.4276 46.4267 46.4276 46.7153C46.4276 47.0038 46.318 47.2806 46.123 47.4846C45.9279 47.6886 45.6634 47.8033 45.3876 47.8033ZM45.3876 54.7087H11.5499C11.2741 54.7087 11.0095 54.594 10.8145 54.39C10.6195 54.186 10.5099 53.9092 10.5099 53.6207C10.5099 53.3321 10.6195 53.0554 10.8145 52.8513C11.0095 52.6473 11.2741 52.5327 11.5499 52.5327H45.3876C45.6634 52.5327 45.9279 52.6473 46.123 52.8513C46.318 53.0554 46.4276 53.3321 46.4276 53.6207C46.4276 53.9092 46.318 54.186 46.123 54.39C45.9279 54.594 45.6634 54.7087 45.3876 54.7087Z" fill="#E95D40"/>
</svg>
