<svg width="23" height="23" viewBox="0 0 23 23" fill="none" xmlns="http://www.w3.org/2000/svg">
<g id="Frame" clip-path="url(#clip0_44_53687)">
<g id="Group">
<path id="Vector" d="M13.4222 14.0917C12.8499 14.4732 12.1853 14.6748 11.5 14.6748C10.8148 14.6748 10.1501 14.4732 9.57788 14.0917L0.153139 7.80833C0.10111 7.77354 0.050045 7.73734 0 7.69975L0 17.9957C0 19.1762 0.957959 20.113 2.1173 20.113H20.8827C22.0631 20.113 23 19.1551 23 17.9957V7.69971C22.9498 7.73739 22.8987 7.77367 22.8465 7.80851L13.4222 14.0917Z" fill="#F84525"/>
<path id="Vector_2" d="M0.900685 6.68699L10.3254 12.9704C10.6822 13.2083 11.0911 13.3272 11.5 13.3272C11.9089 13.3272 12.3178 13.2082 12.6746 12.9704L22.0993 6.68699C22.6633 6.31122 23 5.68232 23 5.00355C23 3.83643 22.0505 2.88696 20.8834 2.88696H2.11659C0.949515 2.88701 1.11411e-06 3.83648 1.11411e-06 5.00467C-0.000348764 5.33763 0.0817142 5.66551 0.238871 5.95905C0.396027 6.25259 0.623392 6.50268 0.900685 6.68699Z" fill="#F84525"/>
</g>
</g>
<defs>
<clipPath id="clip0_44_53687">
<rect width="23" height="23" fill="white"/>
</clipPath>
</defs>
</svg>
