<svg width="88" height="130" viewBox="0 0 88 130" fill="none" xmlns="http://www.w3.org/2000/svg">
<rect y="41.0875" width="88" height="88" rx="44" fill="#F84525" fill-opacity="0.3"/>
<circle cx="43.9999" cy="85.0875" r="17.6" fill="#F84525"/>
<path d="M43.6316 41.3506V84.0875" stroke="white" stroke-width="3.82456" stroke-miterlimit="10" stroke-linecap="round"/>
<path d="M43.6316 41.3506C55.0261 41.3506 64.2632 32.1136 64.2632 20.719C64.2632 9.32454 55.0261 0.0874634 43.6316 0.0874634C32.2371 0.0874634 23 9.32454 23 20.719C23 32.1136 32.2371 41.3506 43.6316 41.3506Z" fill="#F84525"/>
<path d="M36.2631 19.2454C38.7048 19.2454 40.6841 17.266 40.6841 14.8243C40.6841 12.3826 38.7048 10.4033 36.2631 10.4033C33.8214 10.4033 31.842 12.3826 31.842 14.8243C31.842 17.266 33.8214 19.2454 36.2631 19.2454Z" fill="#F76363"/>
</svg>
