<svg width="30" height="30" viewBox="0 0 30 30" fill="none" xmlns="http://www.w3.org/2000/svg">
<path d="M29.8706 20.7223L26.0823 16.9341C28.0979 14.2421 27.5946 10.3554 24.8349 8.28906V0H4.54079C2.10815 0 0.129028 1.97912 0.129028 4.41176V26.4706C0.129028 28.4167 1.71232 30 3.65844 30H24.8349V28.2353H23.0702V24.7059H24.8349V18.1823L28.6228 21.9702L29.8706 20.7223ZM24.2553 16.3549C22.5352 18.075 19.7363 18.075 18.0161 16.3549C16.296 14.6347 16.296 11.8359 18.0161 10.1157C19.7362 8.39565 22.5351 8.39553 24.2553 10.1157C25.9754 11.8359 25.9754 14.6347 24.2553 16.3549ZM3.65844 22.9412C3.03857 22.9407 2.42965 23.1045 1.89373 23.416V12.3529H4.54079V22.9412H3.65844ZM4.54079 10.5882H1.89373V8.82353H4.54079V10.5882ZM4.54079 1.76471V7.05882H1.89373V4.41176C1.89373 2.95218 3.08115 1.76471 4.54079 1.76471ZM21.3055 28.2353H3.65844C1.31673 28.1381 1.31856 24.8022 3.65844 24.7059H21.3055V28.2353ZM6.3055 22.9412V1.76471H23.0702V7.37059C16.9363 5.40635 12.2133 12.9258 16.7684 17.6028C18.4463 19.2807 20.893 19.8142 23.0702 19.1V22.9412H6.3055Z" fill="#202020"/>
<path d="M8.0697 3.52942H12.4815V5.29412H8.0697V3.52942ZM8.0697 7.05883H12.4815V8.82354H8.0697V7.05883Z" fill="#202020"/>
</svg>
