<svg width="29" height="29" viewBox="0 0 29 29" fill="none" xmlns="http://www.w3.org/2000/svg">
<g clip-path="url(#clip0_404_2440)">
<path d="M28.5167 21.8467L28.9033 21.6533L29 7.73335C29 7.60446 28.9356 7.47557 28.8067 7.34668C28.6778 7.21779 28.5167 7.15335 28.3233 7.15335H8.41L7.92667 11.6967C7.92667 11.8256 7.99111 11.9545 8.12 12.0833C8.24889 12.2122 8.39389 12.2767 8.555 12.2767C8.71611 12.2767 8.86111 12.2122 8.99 12.0833C9.11889 11.9545 9.18333 11.8256 9.18333 11.6967V9.18335L14.79 14.1133L9.18333 19.72V15.5633C9.18333 15.37 9.11889 15.225 8.99 15.1283C8.86111 15.0317 8.71611 14.9833 8.555 14.9833C8.39389 14.9833 8.24889 15.0317 8.12 15.1283C7.99111 15.225 7.92667 15.37 7.92667 15.5633V16.3367H4.64C4.51111 16.3367 4.38222 16.4011 4.25333 16.53C4.12444 16.6589 4.06 16.8039 4.06 16.965C4.06 17.1261 4.12444 17.2711 4.25333 17.4C4.38222 17.5289 4.51111 17.5933 4.64 17.5933H7.92667V21.2667C7.92667 21.3956 7.99111 21.5245 8.12 21.6533C8.24889 21.7822 8.41 21.8467 8.60333 21.8467H28.5167ZM27.7433 19.72L22.2333 14.21L26.39 10.6333C26.5189 10.5689 26.5833 10.44 26.5833 10.2467C26.5833 10.0533 26.535 9.89223 26.4383 9.76335C26.3417 9.63446 26.1967 9.57001 26.0033 9.57001C25.81 9.57001 25.6489 9.60223 25.52 9.66668L18.4633 15.7567L10.2467 8.41001H27.7433V19.72ZM15.5633 15.08C15.6278 15.0156 15.66 14.9833 15.66 14.9833L18.0767 17.0133C18.2056 17.1422 18.3344 17.2067 18.4633 17.2067C18.5922 17.2067 18.7211 17.1422 18.85 17.0133L21.2667 14.9833L26.8733 20.59H10.0533L15.5633 15.08ZM0.676667 14.3067H11.2133C11.4067 14.3067 11.5678 14.2422 11.6967 14.1133C11.8256 13.9845 11.89 13.8395 11.89 13.6783C11.89 13.5172 11.8256 13.3722 11.6967 13.2433C11.5678 13.1145 11.4067 13.05 11.2133 13.05H0.676667C0.483333 13.05 0.322222 13.1145 0.193333 13.2433C0.0644444 13.3722 0 13.5172 0 13.6783C0 13.8395 0.0644444 13.9845 0.193333 14.1133C0.322222 14.2422 0.483333 14.3067 0.676667 14.3067ZM1.74 10.8267H6.47667C6.67 10.8267 6.83111 10.7622 6.96 10.6333C7.08889 10.5045 7.15333 10.3595 7.15333 10.1983C7.15333 10.0372 7.08889 9.89223 6.96 9.76335C6.83111 9.63446 6.67 9.57001 6.47667 9.57001H1.74C1.54667 9.57001 1.38556 9.63446 1.25667 9.76335C1.12778 9.89223 1.06333 10.0372 1.06333 10.1983C1.06333 10.3595 1.12778 10.5045 1.25667 10.6333C1.38556 10.7622 1.54667 10.8267 1.74 10.8267ZM5.22 18.9467H0.676667C0.483333 18.9467 0.322222 19.0111 0.193333 19.14C0.0644444 19.2689 0 19.43 0 19.6233C0 19.8167 0.0644444 19.9778 0.193333 20.1067C0.322222 20.2356 0.483333 20.3 0.676667 20.3H5.22C5.41333 20.3 5.57444 20.2356 5.70333 20.1067C5.83222 19.9778 5.89667 19.8167 5.89667 19.6233C5.89667 19.43 5.83222 19.2689 5.70333 19.14C5.57444 19.0111 5.41333 18.9467 5.22 18.9467Z" fill="white"/>
</g>
<defs>
<clipPath id="clip0_404_2440">
<rect width="29" height="29" fill="white" transform="matrix(1 0 0 -1 0 29)"/>
</clipPath>
</defs>
</svg>
