<svg width="19" height="18" viewBox="0 0 19 18" fill="none" xmlns="http://www.w3.org/2000/svg">
<g id="linkedin logo" clip-path="url(#clip0_404_2583)">
<path id="Vector" d="M4.46191 17.375V5.98947H0.602822V17.375H4.46191ZM2.53287 4.43403C3.8786 4.43403 4.71625 3.55976 4.71625 2.4672C4.69118 1.35001 3.87865 0.5 2.5584 0.5C1.23836 0.5 0.375137 1.35003 0.375137 2.4672C0.375137 3.55981 1.21258 4.43403 2.50767 4.43403H2.53275H2.53287ZM6.59791 17.375H10.457V11.0168C10.457 10.6765 10.4821 10.3366 10.584 10.0933C10.863 9.41343 11.4979 8.70926 12.564 8.70926C13.9604 8.70926 14.5191 9.75336 14.5191 11.2839V17.3749H18.3779V10.8466C18.3779 7.34938 16.4741 5.72217 13.935 5.72217C11.8532 5.72217 10.9391 6.86329 10.4313 7.6405H10.4571V5.98923H6.59799C6.64864 7.05759 6.59799 17.3748 6.59799 17.3748L6.59791 17.375Z" fill="white"/>
</g>
<defs>
<clipPath id="clip0_404_2583">
<rect width="18" height="16.875" fill="white" transform="translate(0.375137 0.5)"/>
</clipPath>
</defs>
</svg>
